<svg width="132" height="50" viewBox="0 0 132 50" fill="none" xmlns="http://www.w3.org/2000/svg">
<path d="M16.7457 26.6326C16.7045 27.2546 18.6068 39.444 18.6894 40.3768C18.8963 41.9004 19.8061 43.4552 21.3361 43.5174C22.8665 43.4863 23.7762 41.9004 23.9829 40.3768C24.107 39.5373 26.0093 26.9436 25.9267 26.5704C25.5544 20.5379 17.242 20.3203 16.7457 26.6326Z" fill="#0057A5"/>
<path d="M27.7876 13.0438C28.0772 13.2615 28.5734 13.2615 28.8629 13.0438L30.4344 11.8622C30.7239 11.6446 30.7239 11.2714 30.4344 11.0537L30.393 11.0226C30.1036 10.805 29.6073 10.805 29.318 11.0226L27.7463 12.2043C27.4569 12.4219 27.4569 12.795 27.7463 13.0127L27.7876 13.0438Z" fill="#E33A8F"/>
<path d="M33.5775 15.2515H29.8555C29.442 15.2515 29.1111 15.5003 29.1111 15.8112V15.8734C29.1111 16.1843 29.442 16.4331 29.8555 16.4331H33.5775C33.9911 16.4331 34.3219 16.1843 34.3219 15.8734V15.8112C34.3219 15.5003 33.9911 15.2515 33.5775 15.2515Z" fill="#5CA038"/>
<path d="M28.5734 19.8846C28.284 19.667 27.7876 19.667 27.4983 19.8846L27.4569 19.9158C27.1674 20.1335 27.1674 20.5067 27.4569 20.7242L29.0283 21.9059C29.3178 22.1236 29.8141 22.1236 30.1036 21.9059L30.145 21.8748C30.4344 21.6571 30.4344 21.2841 30.145 21.0663L28.5734 19.8846Z" fill="#E33A8F"/>
<path d="M15.2983 19.8846C15.0089 19.667 14.5126 19.667 14.2231 19.8846L12.6516 21.0663C12.3621 21.2841 12.3621 21.6571 12.6516 21.8748L12.693 21.9059C12.9825 22.1236 13.4787 22.1236 13.7682 21.9059L15.3397 20.7242C15.6292 20.5067 15.6292 20.1335 15.3397 19.9158L15.2983 19.8846Z" fill="#E33A8F"/>
<path d="M13.7269 15.8734V15.8112C13.7269 15.5003 13.3961 15.2515 12.9825 15.2515H9.2605C8.84695 15.2515 8.51611 15.5003 8.51611 15.8112V15.8734C8.51611 16.1844 8.84695 16.4331 9.2605 16.4331H12.9825C13.3961 16.4642 13.7269 16.2154 13.7269 15.8734Z" fill="#5CA038"/>
<path d="M13.9336 13.0438C14.2231 13.2615 14.7194 13.2615 15.0089 13.0438L15.0502 13.0127C15.3397 12.795 15.3397 12.4219 15.0502 12.2043L13.4787 11.0226C13.1892 10.805 12.693 10.805 12.4035 11.0226L12.3621 11.0537C12.0727 11.2714 12.0727 11.6446 12.3621 11.8622L13.9336 13.0438Z" fill="#E33A8F"/>
<path d="M21.3363 10.5873H21.419C21.8325 10.5873 22.1634 10.3385 22.1634 10.0275V7.01125C22.1634 6.7003 21.8325 6.45154 21.419 6.45154H21.3363C20.9226 6.45154 20.5919 6.7003 20.5919 7.01125V10.0275C20.5919 10.3385 20.9226 10.5873 21.3363 10.5873Z" fill="#5CA038"/>
<path d="M21.3775 20.7554C24.598 20.7554 27.2086 18.7924 27.2086 16.371C27.2086 13.9494 24.598 11.9865 21.3775 11.9865C18.1571 11.9865 15.5464 13.9494 15.5464 16.371C15.5464 18.7924 18.1571 20.7554 21.3775 20.7554Z" fill="#0057A5"/>
<path d="M50.7399 22.0305C42.7583 22.1548 37.2994 26.9124 37.2994 32.8518C37.2994 38.9464 42.7996 43.4552 50.7399 43.5174H60.5825V40.7499H50.9053C45.1569 40.7499 41.4349 37.2361 41.4349 32.7895C41.4349 28.374 44.9916 24.7047 50.9467 24.6736H60.5825V22.0305H50.7399Z" fill="#0057A5"/>
<path d="M119.555 21.9681V38.9462L105.164 22.8388C104.667 22.3103 103.84 21.9993 102.972 21.9993C101.524 21.9993 100.325 22.901 100.325 23.9894V43.5483H104.254V26.508L118.687 42.6777C119.183 43.2062 119.969 43.5173 120.837 43.5173C122.284 43.5173 123.484 42.6466 123.484 41.5271V21.9681H119.555Z" fill="#0057A5"/>
<path d="M91.144 40.9673H69.7633L63.9322 43.5171H96.9751L91.144 40.9673Z" fill="#DB2590"/>
<path d="M80.4745 26.6637V21.9994L63.9322 43.5174L69.7633 40.9675L80.4745 26.6637Z" fill="#0057A5"/>
<path d="M80.4744 26.6636L91.1441 40.9674L96.9751 43.5173L80.4744 21.9993V26.6636Z" fill="#8DC63F"/>
</svg>
